<svg height="192" width="192" xmlns="http://www.w3.org/2000/svg"><path d="m0 0c19.45655024 5.76984605 39.60180043 8.74340794 59.73706055 10.91064453 1.92561767.21450806 1.92561767.21450806 3.89013672.43334961 1.13920898.11891602 2.27841796.23783203 3.45214843.36035156 2.68847657.49902344 2.68847657.49902344 4.68847657 2.49902344.22877692 3.76124772.21862011 7.44176388.1196289 11.20556641-.10832985 4.1265224-.15051611 8.05998659.42333985 12.15380859.43568763 4.17629857.67856107 7.94352966-1.54296875 11.640625-6.93670723 6.21635686-16.17677137 11.05892379-25 14 .0721875-.92039062.144375-1.84078125.21875-2.7890625.0928125-1.26585937.185625-2.53171875.28125-3.8359375.0928125-1.22976562.185625-2.45953125.28125-3.7265625.3718732-6.2085394.25822829-12.4317027.21875-18.6484375-.86987549-.12528076-1.73975098-.25056152-2.63598633-.37963867-3.33211045-.48532291-6.66246322-.98059259-9.9921875-1.48193359-1.42163982-.21212576-2.84382327-.42064974-4.26660156-.625-11.72188869-1.68765195-22.53976704-4.46988627-34.10522461-7.51342774v75c-8.91 0-17.82 0-27 0 0-24.75 0-49.5 0-75-8.91 2.475-8.91 2.475-18 5-5.70988912 1.03144741-11.38712493 1.99347216-17.125 2.8125-1.45978939.21706603-2.91942585.43516301-4.37890625.65429688-3.49703256.52285468-6.99586776 1.03211203-10.49609375 1.53320312-1.24130273 4.26265367-.79761347 8.14324853-.3125 12.5.09176513.83515137.18353027 1.67030273.27807617 2.53076172 1.81113393 15.39966536 5.41275546 30.19530508 10.03442383 44.96923828.60674089 2.02006193 1.21136624 4.0407624 1.8125 6.0625.3954177 1.31262528.79117057 2.62514972 1.1875 3.9375-2.59923719 1.98570826-5.20519294 3.96240325-7.8125 5.9375-1.10698243.84594727-1.10698243.84594727-2.23632813 1.70898438-.71220703.53818359-1.42441406 1.07636718-2.15820312 1.63085937-.65460206.49749756-1.30920411.99499512-1.98364258 1.50756836-1.80932617 1.21508789-1.80932617 1.21508789-4.80932617 2.21508789-3.49634927-4.76635796-5.53312051-9.4838269-7.4375-15.0625-.3000293-.87124512-.6000586-1.74249023-.90917969-2.64013672-3.22106563-9.61335116-5.60241347-19.37493612-7.65332031-29.29736328-.15984375-.76521973-.3196875-1.53043945-.484375-2.31884766-2.53879047-12.50518448-3.2092505-24.94642303-3.515625-37.68115234-.02723145-.82532226-.0544629-1.65064453-.08251954-2.50097656-.07332919-2.24968427-.12519036-4.49856718-.16748046-6.74902344-.02578125-1.26328125-.0515625-2.5265625-.078125-3.828125.10828125-.96421875.2165625-1.9284375.328125-2.921875 3.54297131-2.36198088 5.7940344-2.53550471 10.0078125-3.04296875 1.46109296-.18447275 2.92210856-.36955909 4.38305664-.55517578.77151397-.0955719 1.54302795-.1911438 2.33792114-.28961182 13.56932413-1.69739683 26.9672468-3.84369438 40.33370972-6.73724365.67879211-.14593597 1.35758422-.29187195 2.0569458-.44223022 6.35185079-1.37396133 12.65212845-2.83604097 18.9039917-4.61245728 10.20981499-2.83956652 19.21589393-1.53038843 29.20874023 1.47631836z" fill="#e62028" transform="translate(114.232178 2.796631)"/><path d="m0 0c-.13560961 34.71606049-17.32519404 70.29973163-41 95-.85658203.91652344-.85658203.91652344-1.73046875 1.8515625-10.0459685 10.45162518-21.97180545 18.16732171-34.18261719 25.82714844-1.62850191 1.03105432-3.22742855 2.10886497-4.81347656 3.20410156-3.08509288 1.51604221-4.85861334 1.60382092-8.2734375 1.1171875-2.78740455-1.16304643-5.30770564-2.66632177-7.875-4.25-.73959961-.44819092-1.47919922-.89638184-2.24121094-1.3581543-12.8578351-7.94120223-24.1406249-17.00374551-34.52612304-27.97290039-1.29711194-1.35565807-2.63136573-2.67548439-3.96704102-3.99316406-5.5742427-5.65621685-11.17262134-12.11213656-14.390625-19.42578125 1.63451637-4.58674366 5.16605921-6.90804433 8.875-9.8125.62519531-.51498047 1.25039062-1.02996094 1.89453125-1.56054688.60972656-.48146484 1.21945313-.96292968 1.84765625-1.45898437.55284668-.44061768 1.10569336-.88123535 1.67529297-1.33520508 1.70751953-.83276367 1.70751953-.83276367 3.73925781-.6821289 2.42004147 1.04432203 3.3078751 2.140566 4.84326172 4.27124023.51046875.69609375 1.0209375 1.3921875 1.546875 2.109375.52078125.7321875 1.0415625 1.464375 1.578125 2.21875 1.0410537 1.43273726 2.08270743 2.86503874 3.125 4.296875.49467773.68304199.98935547 1.36608398 1.49902344 2.06982422 2.77578799 3.79922437 5.53158869 7.21346808 9.12597656 10.25830078 4.20496962 3.5843099 4.20496962 3.5843099 6.1953125 5.3828125 9.34804316 9.03422101 9.34804316 9.03422101 21.0546875 13.2421875 13.01570956-6.11020642 32.21174045-21.69931848 38-35-.59425781.42410156-1.18851562.84820312-1.80078125 1.28515625-17.96844952 12.71484375-17.96844952 12.71484375-20.19921875 12.71484375-2.03389642-23.77612878-2.03389642-23.77612878 1.01806641-30.11425781 2.7113601-3.19801448 6.31721416-5.02959877 10.01855468-6.84423828 3.5433358-1.87961583 6.61232274-4.40533835 9.77587891-6.85400391 1.35244432-1.01097912 2.7053135-2.02139012 4.05859375-3.03125 4.2539218-3.21951201 8.38267234-6.58202239 12.50390625-9.96875 25.84701738-21.1875 25.84701738-21.1875 32.625-21.1875z" fill="#e52028" transform="translate(184 58)"/></svg>